<svg width="580" height="400" xmlns="http://www.w3.org/2000/svg">
 <!-- Created with Method Draw - http://github.com/duopixel/Method-Draw/ -->

 <g>
  <title>background</title>
  <rect fill="#fff" id="canvas_background" height="402" width="582" y="-1" x="-1"/>
  <g display="none" overflow="visible" y="0" x="0" height="100%" width="100%" id="canvasGrid">
   <rect fill="url(#gridpattern)" stroke-width="0" y="0" x="0" height="100%" width="100%"/>
  </g>
 </g>
 <g>
  <title>Layer 1</title>
  <!-- 三角形 -->
  <g id="svg_24">
   <rect transform="matrix(0.009070295122475314,0,0,0.009070295122475314,0,0) " id="svg_4" fill="rgb(129, 201, 149)" stroke="rgb(129, 201, 149)" height="300" width="300" ry="40" rx="40" y="22034.998855" x="32422.499199"/>
   <circle transform="matrix(0.0369458590752957,0,0,0.04159043049641505,-902.0163591372839,-721.9086485538865) " id="svg_8" fill="#4c4c4c" stroke="rgb(241, 243, 244)" r="30" cy="22234.998855" cx="32322.499199"/>
   <path id="svg_12" d="m286.27715,198.856793l0.843981,-1.227621l0.843981,1.227621l-1.687961,0z" fill-opacity="null" stroke-opacity="null" stroke-width="null" stroke="rgb(253, 214, 99)" fill="rgb(253, 214, 99)"/>
   <ellipse ry="1.074168" rx="0.61381" id="svg_13" cy="199.501129" cx="291.355273" fill-opacity="null" stroke-opacity="null" stroke-width="null" stroke="rgb(238, 103, 92)" fill="rgb(238, 103, 92)"/>
   <ellipse stroke="#1a73e8" transform="rotate(-44.359596252441406 287.01168823242193,201.26625061035165) " ry="0.602175" rx="0.596438" id="svg_14" cy="201.266245" cx="287.011704" fill-opacity="null" stroke-opacity="null" stroke-width="null" fill="#1a73e8"/>
   <text stroke="rgb(129, 201, 149)" transform="rotate(-0.15270188450813293 289.430084228502,195.91844177247523) matrix(0.10833075358472397,0,0,0.11204341825894025,253.52860583897626,167.5408137902114) " xml:space="preserve" text-anchor="start" font-family="'Times New Roman', Times, serif" font-size="24" id="svg_17" y="261.277667" x="325.731291" fill-opacity="null" stroke-opacity="null" stroke-width="0" fill="#000000">p</text>
   <text stroke="rgb(129, 201, 149)" transform="matrix(0.17564479402871735,0,0,0.12092312747104057,241.33358618827083,172.51491585783657) " xml:space="preserve" text-anchor="start" font-family="'Times New Roman', Times, serif" font-size="24" id="svg_18" y="206.469062" x="310.952801" stroke-opacity="null" stroke-width="0" fill="#56aaff">a</text>
   <text stroke="rgb(129, 201, 149)" transform="matrix(0.15609495431698583,0,0,0.09924190305956414,245.21124380301657,174.84291002594932) " xml:space="preserve" text-anchor="start" font-family="'Times New Roman', Times, serif" font-size="24" id="svg_19" y="223.60943" x="295.810275" stroke-opacity="null" stroke-width="0" fill="#ff7f00">i</text>
   <text stroke="rgb(129, 201, 149)" transform="matrix(0.11209950905436283,0,0,0.08709923349180218,259.9890858974594,174.7927169008118) " xml:space="preserve" text-anchor="start" font-family="'Times New Roman', Times, serif" font-size="24" id="svg_20" y="257.276294" x="299.863939" stroke-opacity="null" stroke-width="0" fill="#ff007f">k</text>
   <polyline transform="rotate(153.28726196289062 291.9435119628907,195.60087585449216) " stroke-linecap="round" id="svg_22" points="292.0202340601267,195.600876457943 291.9179323464981,195.600876457943 291.8667814896838,195.600876457943 " fill-opacity="null" stroke-opacity="null" stroke-width="0" stroke="rgb(129, 201, 149)" fill="none"/>
   <text stroke="rgb(129, 201, 149)" transform="matrix(0.1365072431973031,0,0,0.08706360473298425,239.98046206299057,174.22759695645604) " xml:space="preserve" text-anchor="start" font-family="'Times New Roman', Times, serif" font-size="24" id="svg_23" y="291.520093" x="427.200311" stroke-opacity="null" stroke-width="0" fill="#d4aaff">q</text>
  </g>
 </g>
</svg>